<svg xmlns="http://www.w3.org/2000/svg" viewBox="0 0 120 120" role="img" aria-labelledby="title desc">
  <title id="title">HCE H mark</title>
  <desc id="desc">A modern H mark with a hand, leaf, and growth dot for Hudson Community Enterprises.</desc>
  <defs>
    <linearGradient id="markGreen" x1="14" x2="106" y1="12" y2="112" gradientUnits="userSpaceOnUse">
      <stop offset="0" stop-color="#0f6d50" />
      <stop offset="1" stop-color="#073f36" />
    </linearGradient>
  </defs>
  <rect width="120" height="120" rx="24" fill="url(#markGreen)" />
  <path fill="#fff" d="M24 25h18v70H24zM78 25h18v70H78z" />
  <path
    fill="#fff"
    d="M28 73c12-11 24-14 37-10 7 2 14 2 21-1 5-2 9 3 6 8-5 8-17 13-32 12-10-.7-20 3-29 10-3 2-8-1-8-5 0-5 2-10 5-14z"
  />
  <path
    fill="#77b82a"
    d="M51 55c-12-12-5-25 14-29 2 18-4 29-14 29zM66 60c0-14 11-22 28-21-4 17-14 25-28 21z"
  />
  <path fill="none" stroke="#fff" stroke-linecap="round" stroke-width="3.4" d="M56 57c5-6 12-9 21-11" />
  <circle cx="94" cy="35" r="8" fill="#f0b547" />
</svg>
