<svg xmlns="http://www.w3.org/2000/svg" viewBox="0 0 180 180" role="img" aria-labelledby="title desc">
  <title id="title">HCE H mark</title>
  <desc id="desc">Compact H icon with hand, leaf, and growth dot.</desc>
  <rect x="38" y="28" width="32" height="124" rx="4" fill="#0a4e42" />
  <rect x="110" y="28" width="32" height="124" rx="4" fill="#0a4e42" />
  <path fill="#fff" d="M58 125c18-20 39-27 61-21 10 3 19 2 29-3 8-4 15 6 9 14-10 15-30 22-56 20-18-1-34 6-49 18-7 6-17-3-12-12 4-6 10-12 18-16z" />
  <path fill="#0a4e42" d="M58 125c18-20 39-27 61-21 8 2 15 2 23 0-8 10-25 15-46 13-16-1-29 3-41 12z" />
  <path fill="#77b82a" d="M79 93c-21-23-7-46 28-55 4 33-8 53-28 55z" />
  <path fill="#77b82a" d="M101 95c3-26 23-40 55-38-8 32-29 47-55 38z" />
  <circle cx="96" cy="57" r="9.5" fill="#f0b547" />
</svg>
